<?xml version="1.0" encoding="utf-8"?>
<!-- Generator: Adobe Illustrator 28.2.0, SVG Export Plug-In . SVG Version: 6.00 Build 0)  -->
<svg version="1.1" id="Layer_1" xmlns="http://www.w3.org/2000/svg" xmlns:xlink="http://www.w3.org/1999/xlink" x="0px" y="0px"
	 viewBox="0 0 4334 1770.7" style="enable-background:new 0 0 4334 1770.7;" xml:space="preserve">
<style type="text/css">
	.st0{fill:#FFFFFF;}
</style>
<path class="st0" d="M1483.4,433.1c-3.6,2.7-7.7,4.7-13.7,8.4c4.7,3,8.2,5.2,11.7,7.5c10.8,7.2,11,13.1,0.4,21
	c-2,1.5-4.1,2.9-5.6,6.6h46c5,0,10.1-0.1,15.1,0c16.2,0.3,22.3,6.1,22.5,22.5c0.3,22.9,0.1,45.8,0.1,68.6c0,4.6,0.1,9.2,0,13.7
	c-0.4,14.2-3.3,18.1-16.9,22.8c-1.2,0.4-2.4,1.2-4.4,2.4c0,11.5,0.2,23.3-0.1,35.2c-0.1,5.8,3.7,7.9,7.6,10.3
	c11.8,7.1,23.3,14.5,35.4,21c11.9,6.4,17,15.7,16.4,29c-0.5,12.3-0.1,24.7-0.1,37.1c0,10.6-4.7,18.3-14.2,23.2
	c-8.5,4.4-16.8,9.5-25.6,13.2c-8.6,3.6-12.1,9.2-13.5,18.4c-4.6,29.3-28,52.2-56.4,56c-8.1,1.1-16.3,0.9-26.3,1.4v15.1
	c0,43.5,0.1,87-0.1,130.4c0,5.4-0.6,11-2.5,16c-2.6,7-8.8,9.8-16,11.4c-10,2.2-10.7,3.9-11.4,13.9c-0.8,10.3,1.6,17.8,11.4,24.1
	c18.5,11.8,18.3,36.2-0.3,47.8c-7.5,4.7-9.9,9.8-9.1,17.7c0.3,3.2,0.3,6.4,0,9.6c-0.6,6.7,1.7,11.1,8.2,14c4,1.8,8,4.7,10.6,8.2
	c7.8,10.5,4,23.7-8.6,31.3c-6.1,3.7-12.8,5.9-14,15.1c-2.3,17.7-3,18.4,12.4,27.6c7.7,4.5,11.4,9.6,10.3,18.7
	c-0.9,7.2,0,14.7-0.7,21.9c-2.7,26.7-17.7,43.4-43.8,49.5c-2.7,0.6-5.3,1.2-8.7,2c-1.8,11.2-4,22.4-12.6,30.9v341.6h-177.8v-342.7
	c-0.7-0.9-1.4-1.8-2.3-2.7c-6.1-6.4-7.8-16.9-12.3-27.5c-1.5-0.4-5.5-1.3-9.3-2.2c-23.6-5.9-39.4-24.5-41.3-48.9
	c-0.3-3.7,0.3-7.4-0.2-11c-1.9-15.2,0.8-27.8,17.1-34.1c6-2.3,6.8-7.6,6.3-13.7c-0.9-10.9-3.1-19.8-15-24.8
	c-17.9-7.6-15.6-32.9,1.1-38.8c8-2.8,10.1-8.3,9.4-16c-0.4-3.6-0.2-7.3,0-11c0.4-6-1.1-10.5-7.1-13.3c-20.8-9.7-20.7-40.5-0.1-51.3
	c9.1-4.8,12.9-21.7,7.6-30.1c-1.7-2.7-5.5-4.6-8.7-5.7c-16.4-5.2-19.5-9.1-19.6-26.5c-0.1-43.5,0-87,0-130.4v-16.3
	c-5.9-0.3-10.7-0.6-15.6-0.6c-34.6-0.7-61.1-22.7-67.2-56.9c-1.6-9.1-5-14.7-13.6-18.2c-8.8-3.7-17.1-8.8-25.6-13.2
	c-9.5-4.9-14.1-12.7-14.2-23.3c-0.1-13.7-0.1-27.5,0-41.2c0.1-9.9,4.4-17.5,13-22.6c12.6-7.5,25-15.4,37.8-22.5
	c6.3-3.5,9.4-7.6,8.9-15.1c-0.7-10.4-0.2-20.9-0.2-31.6c-3-1.1-5.1-1.9-7.2-2.5c-9.3-2.4-14-9-14.1-18c-0.3-30.2-0.5-60.4,0.1-90.6
	c0.2-12,7.3-18.2,19.5-18.4c18.8-0.3,37.5-0.1,56.3-0.1c2.6,0,5.2-0.2,10.7-0.5c-5.1-3.6-8-5.4-10.6-7.5c-7.5-6.2-7.6-12,0.1-17.9
	c3.8-2.9,8.1-5.3,13.7-8.9c-5.5-3.6-9.8-6-13.6-8.8c-2.2-1.7-3.8-3.4-4.8-5.1H846.3l-33-177.8h295.3c-3.3-4.7-2.1-9.7,4.2-13.6
	c8.2-5.1,15.5-10.4,21.2-18.6c4.7-6.7,12.8-8.3,20.9-8.3c15.6,0.1,31.1,0,46.7,0h14.1c6.5-25.7,28.1-29.1,50.2-34
	c0-8.7,0.2-17.3,0-25.9c-0.6-21,1.4-25.5,25.1-24.5c7.3,0.3,14.6,0,22,0.1c14,0.2,17.1,3.2,17.4,16.9c0.2,10.9,0,21.8,0,33.2
	c21.3,5.3,43.5,7.8,49.9,33.4h51c0-18.1,1.7-35.6-0.4-52.7c-3.7-29.6-30.6-52-61.4-52.6c-26.5-0.6-53.1-0.1-79.6-0.2
	c-3.7,0-7.4,0.3-11-0.3c-8.1-1.3-12.9-7.2-12.8-15.3c0.1-8.1,4.8-13.6,13.2-14.8c2.7-0.4,5.5-0.3,8.2-0.3c26.6,0,53.1,0.6,79.6-0.1
	c48.2-1.4,96.3,38.1,96,95.5c-0.1,13.3,0.1,26.5-0.1,39.8c-0.2,11.6,3.7,20.5,15,25c0.8,0.3,1.6,0.9,2.4,1.4
	c8.6,5.4,11,10.5,7.2,15.9h312.9l-47,177.8h-265.3C1487.4,429.6,1485.7,431.3,1483.4,433.1z"/>
<g>
	<path class="st0" d="M948.5,1698.3H690.4l-44.2-262.7H332.3l-44.2,262.7H53.3L313.7,250h374.4L948.5,1698.3z M364.9,1239h246.5
		L488.1,506.6L364.9,1239z"/>
</g>
<g>
	<path class="st0" d="M1821.7,1378.4l-81.2,319.9h-97.4L1998,251.6h155.4l361.8,1446.6h-106.7l-81.2-319.9H1821.7z M1837.9,1295.9
		h473.2L2072.2,361L1837.9,1295.9z"/>
	<path class="st0" d="M3016.2,253.7c248.2,0,347.9,121.8,347.9,326.1v125.9c0,169.2-74.2,266.2-234.3,299.2
		c167,33,234.3,138.3,234.3,295.1v224.9c0,59.8,4.6,125.9,39.4,173.3h-111.3c-27.8-43.3-34.8-94.9-34.8-173.3v-227
		c0-191.9-118.3-245.6-303.9-245.6h-169.3v645.9h-106.7V253.7H3016.2z M2955.9,965.7c190.2,0,301.5-47.5,301.5-241.5V588
		c0-154.8-67.3-247.6-243.5-247.6h-229.6v625.3H2955.9z"/>
	<path class="st0" d="M3853.5,1698.3V340.4h-331.7v-86.7h767.8v86.7h-329.4v1357.9H3853.5z"/>
</g>
</svg>
